<svg width="39" height="65" viewBox="0 0 39 65" fill="none" xmlns="http://www.w3.org/2000/svg">
<g clip-path="url(#clip0_302_587)">
<path d="M19.3333 12.5C24.8563 12.5 29.3333 16.977 29.3333 22.5C29.3345 24.0526 28.9738 25.5841 28.2796 26.9728C27.5854 28.3615 26.5769 29.5692 25.3343 30.5H27.3333C27.5985 30.5 27.8528 30.6054 28.0404 30.7929C28.2279 30.9804 28.3333 31.2348 28.3333 31.5C28.3333 31.7652 28.2279 32.0196 28.0404 32.2071C27.8528 32.3946 27.5985 32.5 27.3333 32.5H19.3333C13.8103 32.5 9.33325 28.023 9.33325 22.5C9.33325 16.977 13.8103 12.5 19.3333 12.5ZM19.3333 24.5C18.8028 24.5 18.2941 24.7107 17.919 25.0858C17.544 25.4609 17.3333 25.9696 17.3333 26.5C17.3333 27.0304 17.544 27.5391 17.919 27.9142C18.2941 28.2893 18.8028 28.5 19.3333 28.5C19.8637 28.5 20.3724 28.2893 20.7475 27.9142C21.1225 27.5391 21.3333 27.0304 21.3333 26.5C21.3333 25.9696 21.1225 25.4609 20.7475 25.0858C20.3724 24.7107 19.8637 24.5 19.3333 24.5ZM15.3333 20.5C14.8028 20.5 14.2941 20.7107 13.919 21.0858C13.544 21.4609 13.3333 21.9696 13.3333 22.5C13.3333 23.0304 13.544 23.5391 13.919 23.9142C14.2941 24.2893 14.8028 24.5 15.3333 24.5C15.8637 24.5 16.3724 24.2893 16.7475 23.9142C17.1225 23.5391 17.3333 23.0304 17.3333 22.5C17.3333 21.9696 17.1225 21.4609 16.7475 21.0858C16.3724 20.7107 15.8637 20.5 15.3333 20.5ZM23.3333 20.5C22.8028 20.5 22.2941 20.7107 21.919 21.0858C21.544 21.4609 21.3333 21.9696 21.3333 22.5C21.3333 23.0304 21.544 23.5391 21.919 23.9142C22.2941 24.2893 22.8028 24.5 23.3333 24.5C23.8637 24.5 24.3724 24.2893 24.7475 23.9142C25.1225 23.5391 25.3333 23.0304 25.3333 22.5C25.3333 21.9696 25.1225 21.4609 24.7475 21.0858C24.3724 20.7107 23.8637 20.5 23.3333 20.5ZM19.3333 16.5C18.8028 16.5 18.2941 16.7107 17.919 17.0858C17.544 17.4609 17.3333 17.9696 17.3333 18.5C17.3333 19.0304 17.544 19.5391 17.919 19.9142C18.2941 20.2893 18.8028 20.5 19.3333 20.5C19.8637 20.5 20.3724 20.2893 20.7475 19.9142C21.1225 19.5391 21.3333 19.0304 21.3333 18.5C21.3333 17.9696 21.1225 17.4609 20.7475 17.0858C20.3724 16.7107 19.8637 16.5 19.3333 16.5Z" fill="white"/>
</g>
<path d="M0.270752 41.3613H2.39478C3.316 41.3613 4.01099 41.4948 4.47974 41.7617C4.94849 42.0286 5.18286 42.4893 5.18286 43.1436C5.18286 43.417 5.13403 43.6644 5.03638 43.8857C4.94198 44.1038 4.80363 44.2845 4.62134 44.4277C4.43905 44.5677 4.21444 44.6621 3.94751 44.7109V44.7598C4.2242 44.8086 4.46997 44.8949 4.68481 45.0186C4.90291 45.1423 5.07381 45.3197 5.19751 45.5508C5.32446 45.7819 5.38794 46.0814 5.38794 46.4492C5.38794 46.8854 5.28377 47.2565 5.07544 47.5625C4.87036 47.8685 4.57576 48.1012 4.19165 48.2607C3.81079 48.4202 3.35832 48.5 2.83423 48.5H0.270752V41.3613ZM1.44263 44.3057H2.56567C3.09627 44.3057 3.46411 44.2194 3.66919 44.0469C3.87427 43.8743 3.97681 43.6221 3.97681 43.29C3.97681 42.9515 3.85474 42.7074 3.6106 42.5576C3.36971 42.4079 2.9856 42.333 2.45825 42.333H1.44263V44.3057ZM1.44263 45.2529V47.5186H2.67798C3.22485 47.5186 3.60897 47.4128 3.83032 47.2012C4.05168 46.9896 4.16235 46.7031 4.16235 46.3418C4.16235 46.1204 4.1119 45.9284 4.01099 45.7656C3.91333 45.6029 3.7522 45.4775 3.52759 45.3896C3.30298 45.2985 3.00024 45.2529 2.61938 45.2529H1.44263ZM8.09282 43.0947V48.5H6.94536V43.0947H8.09282ZM7.52642 41.0244C7.7022 41.0244 7.85356 41.0716 7.98052 41.166C8.11073 41.2604 8.17583 41.4232 8.17583 41.6543C8.17583 41.8822 8.11073 42.0449 7.98052 42.1426C7.85356 42.237 7.7022 42.2842 7.52642 42.2842C7.34412 42.2842 7.1895 42.237 7.06255 42.1426C6.93885 42.0449 6.877 41.8822 6.877 41.6543C6.877 41.4232 6.93885 41.2604 7.06255 41.166C7.1895 41.0716 7.34412 41.0244 7.52642 41.0244ZM14.7235 45.7852C14.7235 46.2344 14.6649 46.6331 14.5477 46.9814C14.4305 47.3298 14.2596 47.6243 14.035 47.8652C13.8104 48.1029 13.5402 48.2852 13.2245 48.4121C12.9087 48.5358 12.5523 48.5977 12.1551 48.5977C11.784 48.5977 11.4439 48.5358 11.1346 48.4121C10.8254 48.2852 10.5568 48.1029 10.329 47.8652C10.1043 47.6243 9.93019 47.3298 9.80649 46.9814C9.6828 46.6331 9.62095 46.2344 9.62095 45.7852C9.62095 45.1895 9.72349 44.6849 9.92856 44.2715C10.1369 43.8548 10.4331 43.5374 10.8172 43.3193C11.2014 43.1012 11.6587 42.9922 12.1893 42.9922C12.6874 42.9922 13.1268 43.1012 13.5077 43.3193C13.8885 43.5374 14.1864 43.8548 14.4012 44.2715C14.6161 44.6882 14.7235 45.1927 14.7235 45.7852ZM10.8026 45.7852C10.8026 46.179 10.8498 46.516 10.9442 46.7959C11.0418 47.0758 11.1916 47.2907 11.3934 47.4404C11.5952 47.5869 11.8556 47.6602 12.1747 47.6602C12.4937 47.6602 12.7541 47.5869 12.9559 47.4404C13.1577 47.2907 13.3058 47.0758 13.4002 46.7959C13.4946 46.516 13.5418 46.179 13.5418 45.7852C13.5418 45.3913 13.4946 45.0576 13.4002 44.7842C13.3058 44.5075 13.1577 44.2975 12.9559 44.1543C12.7541 44.0078 12.492 43.9346 12.1698 43.9346C11.6945 43.9346 11.3478 44.0941 11.1297 44.4131C10.9116 44.7321 10.8026 45.1895 10.8026 45.7852ZM19.8747 46.957C19.8747 47.3118 19.7884 47.6113 19.6159 47.8555C19.4433 48.0996 19.1911 48.2852 18.859 48.4121C18.5303 48.5358 18.1266 48.5977 17.6481 48.5977C17.2705 48.5977 16.945 48.57 16.6715 48.5146C16.4014 48.4626 16.1458 48.3812 15.9049 48.2705V47.2793C16.1621 47.3997 16.4502 47.5039 16.7692 47.5918C17.0915 47.6797 17.3958 47.7236 17.6823 47.7236C18.0599 47.7236 18.3317 47.665 18.4977 47.5479C18.6637 47.4274 18.7467 47.2679 18.7467 47.0693C18.7467 46.9521 18.7125 46.848 18.6442 46.7568C18.5791 46.6624 18.4554 46.5664 18.2731 46.4688C18.0941 46.3678 17.8304 46.2474 17.4821 46.1074C17.1403 45.9707 16.8522 45.834 16.6178 45.6973C16.3834 45.5605 16.206 45.3962 16.0856 45.2041C15.9652 45.0088 15.9049 44.7598 15.9049 44.457C15.9049 43.9785 16.0937 43.6156 16.4713 43.3682C16.8522 43.1175 17.3551 42.9922 17.9801 42.9922C18.3122 42.9922 18.6247 43.0264 18.9176 43.0947C19.2139 43.1598 19.5036 43.2559 19.7868 43.3828L19.4254 44.2471C19.1813 44.1396 18.9355 44.0518 18.6881 43.9834C18.444 43.9118 18.195 43.876 17.9411 43.876C17.6448 43.876 17.4186 43.9215 17.2624 44.0127C17.1094 44.1038 17.0329 44.234 17.0329 44.4033C17.0329 44.5303 17.0703 44.6377 17.1452 44.7256C17.22 44.8135 17.3486 44.9014 17.5309 44.9893C17.7165 45.0771 17.9736 45.1862 18.3024 45.3164C18.6247 45.4401 18.903 45.5703 19.1374 45.707C19.375 45.8405 19.5573 46.0049 19.6842 46.2002C19.8112 46.3955 19.8747 46.6478 19.8747 46.957ZM22.4624 40.9023V44.5742C22.4624 44.7402 22.4558 44.9225 22.4428 45.1211C22.4298 45.3164 22.4168 45.5003 22.4038 45.6729H22.4282C22.5128 45.5589 22.6137 45.4255 22.7309 45.2725C22.8514 45.1195 22.9653 44.986 23.0727 44.8721L24.7231 43.0947H26.0415L23.8784 45.4189L26.1831 48.5H24.8354L23.1069 46.127L22.4624 46.6787V48.5H21.3149V40.9023H22.4624ZM32.0325 45.7852C32.0325 46.2344 31.9739 46.6331 31.8567 46.9814C31.7395 47.3298 31.5686 47.6243 31.344 47.8652C31.1194 48.1029 30.8492 48.2852 30.5334 48.4121C30.2177 48.5358 29.8612 48.5977 29.4641 48.5977C29.093 48.5977 28.7528 48.5358 28.4436 48.4121C28.1344 48.2852 27.8658 48.1029 27.6379 47.8652C27.4133 47.6243 27.2392 47.3298 27.1155 46.9814C26.9918 46.6331 26.9299 46.2344 26.9299 45.7852C26.9299 45.1895 27.0325 44.6849 27.2375 44.2715C27.4459 43.8548 27.7421 43.5374 28.1262 43.3193C28.5103 43.1012 28.9677 42.9922 29.4983 42.9922C29.9963 42.9922 30.4358 43.1012 30.8167 43.3193C31.1975 43.5374 31.4954 43.8548 31.7102 44.2715C31.925 44.6882 32.0325 45.1927 32.0325 45.7852ZM28.1116 45.7852C28.1116 46.179 28.1588 46.516 28.2532 46.7959C28.3508 47.0758 28.5006 47.2907 28.7024 47.4404C28.9042 47.5869 29.1646 47.6602 29.4836 47.6602C29.8027 47.6602 30.0631 47.5869 30.2649 47.4404C30.4667 47.2907 30.6148 47.0758 30.7092 46.7959C30.8036 46.516 30.8508 46.179 30.8508 45.7852C30.8508 45.3913 30.8036 45.0576 30.7092 44.7842C30.6148 44.5075 30.4667 44.2975 30.2649 44.1543C30.0631 44.0078 29.801 43.9346 29.4788 43.9346C29.0035 43.9346 28.6568 44.0941 28.4387 44.4131C28.2206 44.7321 28.1116 45.1895 28.1116 45.7852ZM36.3243 42.9922C36.9655 42.9922 37.4799 43.2266 37.8672 43.6953C38.2579 44.1641 38.4532 44.8607 38.4532 45.7852C38.4532 46.3971 38.362 46.9131 38.1797 47.333C38.0007 47.7497 37.7484 48.0654 37.4229 48.2803C37.1006 48.4919 36.7247 48.5977 36.295 48.5977C36.0215 48.5977 35.7839 48.5618 35.5821 48.4902C35.3803 48.4186 35.2077 48.3258 35.0645 48.2119C34.9213 48.0947 34.8008 47.9678 34.7032 47.8311H34.6348C34.6511 47.9613 34.6657 48.1061 34.6788 48.2656C34.695 48.4219 34.7032 48.5651 34.7032 48.6953V50.8975H33.5508V43.0947H34.4883L34.6495 43.8418H34.7032C34.8041 43.6888 34.9262 43.5472 35.0694 43.417C35.2159 43.2868 35.3917 43.1842 35.5967 43.1094C35.8051 43.0312 36.0476 42.9922 36.3243 42.9922ZM36.0167 43.9297C35.7009 43.9297 35.447 43.9932 35.2549 44.1201C35.0661 44.2438 34.9278 44.431 34.8399 44.6816C34.7553 44.9323 34.7097 45.2464 34.7032 45.624V45.7852C34.7032 46.1855 34.7439 46.5257 34.8252 46.8057C34.9099 47.0824 35.0482 47.2939 35.2403 47.4404C35.4356 47.5837 35.6993 47.6553 36.0313 47.6553C36.3112 47.6553 36.5424 47.5788 36.7247 47.4258C36.9102 47.2728 37.0486 47.0547 37.1397 46.7715C37.2308 46.4883 37.2764 46.1546 37.2764 45.7705C37.2764 45.1878 37.1723 44.7354 36.9639 44.4131C36.7588 44.0908 36.4431 43.9297 36.0167 43.9297Z" fill="white"/>
<defs>
<clipPath id="clip0_302_587">
<rect width="24" height="24" fill="white" transform="translate(7.33325 10.5)"/>
</clipPath>
</defs>
</svg>
