<svg width="30" height="65" viewBox="0 0 30 65" fill="none" xmlns="http://www.w3.org/2000/svg">
<path d="M15.39 13.152C15.2813 13.0539 15.143 13 15 13C14.857 13 14.7187 13.0539 14.61 13.152L6 20.942V30.1C6 30.6039 6.18964 31.0872 6.52721 31.4435C6.86477 31.7998 7.32261 32 7.8 32H12.6C12.7591 32 12.9117 31.9333 13.0243 31.8145C13.1368 31.6957 13.2 31.5346 13.2 31.3667V27.5667C13.2 27.0628 13.3896 26.5795 13.7272 26.2232C14.0648 25.8669 14.5226 25.6667 15 25.6667C15.4774 25.6667 15.9352 25.8669 16.2728 26.2232C16.6104 26.5795 16.8 27.0628 16.8 27.5667V31.3667C16.8 31.5346 16.8632 31.6957 16.9757 31.8145C17.0883 31.9333 17.2409 32 17.4 32H22.2C22.6774 32 23.1352 31.7998 23.4728 31.4435C23.8104 31.0872 24 30.6039 24 30.1V20.942L15.39 13.152Z" fill="#FFFFFF"/>
<path d="M6.56738 48.5H5.40039V45.2773H2.10938V48.5H0.9375V41.3613H2.10938V44.2812H5.40039V41.3613H6.56738V48.5ZM13.325 45.7852C13.325 46.2344 13.2664 46.6331 13.1492 46.9814C13.032 47.3298 12.8611 47.6243 12.6365 47.8652C12.4119 48.1029 12.1417 48.2852 11.826 48.4121C11.5102 48.5358 11.1538 48.5977 10.7566 48.5977C10.3855 48.5977 10.0454 48.5358 9.73613 48.4121C9.42689 48.2852 9.15833 48.1029 8.93047 47.8652C8.70586 47.6243 8.53171 47.3298 8.40801 46.9814C8.28431 46.6331 8.22246 46.2344 8.22246 45.7852C8.22246 45.1895 8.325 44.6849 8.53008 44.2715C8.73841 43.8548 9.03464 43.5374 9.41875 43.3193C9.80286 43.1012 10.2602 42.9922 10.7908 42.9922C11.2889 42.9922 11.7283 43.1012 12.1092 43.3193C12.49 43.5374 12.7879 43.8548 13.0027 44.2715C13.2176 44.6882 13.325 45.1927 13.325 45.7852ZM9.4041 45.7852C9.4041 46.179 9.4513 46.516 9.5457 46.7959C9.64336 47.0758 9.7931 47.2907 9.99492 47.4404C10.1967 47.5869 10.4572 47.6602 10.7762 47.6602C11.0952 47.6602 11.3556 47.5869 11.5574 47.4404C11.7592 47.2907 11.9074 47.0758 12.0018 46.7959C12.0962 46.516 12.1434 46.179 12.1434 45.7852C12.1434 45.3913 12.0962 45.0576 12.0018 44.7842C11.9074 44.5075 11.7592 44.2975 11.5574 44.1543C11.3556 44.0078 11.0936 43.9346 10.7713 43.9346C10.296 43.9346 9.94935 44.0941 9.73125 44.4131C9.51315 44.7321 9.4041 45.1895 9.4041 45.7852ZM20.9518 42.9922C21.5572 42.9922 22.013 43.1484 22.3189 43.4609C22.6282 43.7734 22.7828 44.2747 22.7828 44.9648V48.5H21.6354V45.1699C21.6354 44.7598 21.5556 44.4505 21.3961 44.2422C21.2366 44.0339 20.9941 43.9297 20.6686 43.9297C20.2128 43.9297 19.884 44.0762 19.6822 44.3691C19.4837 44.6589 19.3844 45.0804 19.3844 45.6338V48.5H18.2369V45.1699C18.2369 44.8965 18.2011 44.6686 18.1295 44.4863C18.0611 44.3008 17.9553 44.1624 17.8121 44.0713C17.6689 43.9769 17.4882 43.9297 17.2701 43.9297C16.9544 43.9297 16.7021 44.0013 16.5133 44.1445C16.3277 44.2878 16.1943 44.4993 16.1129 44.7793C16.0315 45.056 15.9908 45.3962 15.9908 45.7998V48.5H14.8434V43.0947H15.7369L15.898 43.8223H15.9615C16.0722 43.6335 16.2089 43.4788 16.3717 43.3584C16.5377 43.2347 16.7216 43.1436 16.9234 43.085C17.1253 43.0231 17.3352 42.9922 17.5533 42.9922C17.957 42.9922 18.2971 43.0638 18.5738 43.207C18.8505 43.347 19.0572 43.5618 19.1939 43.8516H19.2818C19.4511 43.5586 19.6871 43.3421 19.9898 43.2021C20.2926 43.0622 20.6132 42.9922 20.9518 42.9922ZM26.7377 42.9922C27.2195 42.9922 27.6329 43.0915 27.9779 43.29C28.323 43.4886 28.5883 43.7702 28.7738 44.1348C28.9594 44.4993 29.0521 44.9355 29.0521 45.4434V46.0586H25.4438C25.4568 46.5827 25.5967 46.9863 25.8637 47.2695C26.1339 47.5527 26.5115 47.6943 26.9965 47.6943C27.3415 47.6943 27.6508 47.6618 27.9242 47.5967C28.2009 47.5283 28.4857 47.429 28.7787 47.2988V48.2314C28.5085 48.3584 28.2335 48.4512 27.9535 48.5098C27.6736 48.5684 27.3383 48.5977 26.9477 48.5977C26.4171 48.5977 25.9499 48.4951 25.5463 48.29C25.1459 48.0817 24.8318 47.7725 24.6039 47.3623C24.3793 46.9521 24.267 46.4427 24.267 45.834C24.267 45.2285 24.3695 44.7142 24.5746 44.291C24.7797 43.8678 25.0678 43.5456 25.4389 43.3242C25.81 43.1029 26.2429 42.9922 26.7377 42.9922ZM26.7377 43.8564C26.3764 43.8564 26.0834 43.9736 25.8588 44.208C25.6374 44.4424 25.5072 44.7858 25.4682 45.2383H27.9291C27.9258 44.9681 27.8803 44.7288 27.7924 44.5205C27.7077 44.3122 27.5775 44.1494 27.4018 44.0322C27.2292 43.915 27.0079 43.8564 26.7377 43.8564Z" fill="#FFFFFF"/>
</svg>
