<svg width="30" height="65" viewBox="0 0 30 65" fill="none" xmlns="http://www.w3.org/2000/svg">
<path d="M24.9731 30.1875C23.6878 27.9316 21.6807 26.1738 19.275 25.1972C20.4713 24.2999 21.355 23.049 21.8009 21.6216C22.2468 20.1942 22.2322 18.6627 21.7593 17.2441C21.2865 15.8254 20.3792 14.5915 19.166 13.7171C17.9529 12.8427 16.4954 12.3722 15 12.3722C13.5046 12.3722 12.0471 12.8427 10.8339 13.7171C9.62078 14.5915 8.7135 15.8254 8.24061 17.2441C7.76772 18.6627 7.75319 20.1942 8.19907 21.6216C8.64496 23.049 9.52865 24.2999 10.725 25.1972C8.31928 26.1738 6.31221 27.9316 5.02686 30.1875C4.94721 30.3156 4.89413 30.4583 4.87076 30.6073C4.8474 30.7563 4.85423 30.9085 4.89084 31.0548C4.92746 31.2011 4.99312 31.3385 5.08392 31.4589C5.17472 31.5794 5.2888 31.6803 5.41938 31.7557C5.54996 31.8312 5.69438 31.8796 5.84405 31.8981C5.99373 31.9166 6.14559 31.9049 6.29062 31.8635C6.43566 31.8222 6.57089 31.7521 6.6883 31.6574C6.8057 31.5628 6.90288 31.4455 6.97404 31.3125C8.67279 28.3763 11.6728 26.625 15 26.625C18.3272 26.625 21.3272 28.3772 23.0259 31.3125C23.1802 31.5605 23.4248 31.7388 23.7081 31.8097C23.9914 31.8806 24.2912 31.8386 24.544 31.6925C24.7969 31.5464 24.9831 31.3077 25.0631 31.0268C25.1432 30.746 25.1109 30.445 24.9731 30.1875ZM10.125 19.5C10.125 18.5358 10.4109 17.5933 10.9466 16.7916C11.4822 15.9899 12.2436 15.3651 13.1344 14.9961C14.0252 14.6271 15.0054 14.5306 15.951 14.7187C16.8967 14.9068 17.7653 15.3711 18.4471 16.0529C19.1289 16.7346 19.5932 17.6033 19.7813 18.5489C19.9694 19.4946 19.8729 20.4748 19.5039 21.3656C19.1349 22.2564 18.5101 23.0177 17.7084 23.5534C16.9067 24.0891 15.9642 24.375 15 24.375C13.7075 24.3735 12.4684 23.8594 11.5545 22.9455C10.6406 22.0316 10.1265 20.7925 10.125 19.5Z" fill="white"/>
<path d="M4.5127 41.3613C5.43392 41.3613 6.10612 41.5501 6.5293 41.9277C6.95247 42.3053 7.16406 42.8343 7.16406 43.5146C7.16406 43.8239 7.11523 44.1185 7.01758 44.3984C6.92318 44.6751 6.76693 44.9209 6.54883 45.1357C6.33073 45.3473 6.04264 45.515 5.68457 45.6387C5.32975 45.7624 4.89193 45.8242 4.37109 45.8242H3.60938V48.5H2.4375V41.3613H4.5127ZM4.43457 42.333H3.60938V44.8477H4.24902C4.61686 44.8477 4.92936 44.8053 5.18652 44.7207C5.44368 44.6328 5.639 44.4945 5.77246 44.3057C5.90592 44.1169 5.97266 43.8678 5.97266 43.5586C5.97266 43.1452 5.84733 42.8376 5.59668 42.6357C5.34928 42.4339 4.96191 42.333 4.43457 42.333ZM11.4119 42.9922C11.5031 42.9922 11.6023 42.9971 11.7098 43.0068C11.8172 43.0166 11.91 43.0296 11.9881 43.0459L11.8807 44.1201C11.8123 44.1006 11.7277 44.0859 11.6268 44.0762C11.5291 44.0664 11.4412 44.0615 11.3631 44.0615C11.158 44.0615 10.9627 44.0957 10.7771 44.1641C10.5916 44.2292 10.4272 44.3301 10.284 44.4668C10.1408 44.6003 10.0285 44.7679 9.94707 44.9697C9.86569 45.1715 9.825 45.4059 9.825 45.6729V48.5H8.67266V43.0947H9.57109L9.72734 44.0469H9.78105C9.88848 43.8548 10.0219 43.679 10.1814 43.5195C10.341 43.36 10.5232 43.2331 10.7283 43.1387C10.9367 43.041 11.1645 42.9922 11.4119 42.9922ZM17.9742 45.7852C17.9742 46.2344 17.9156 46.6331 17.7984 46.9814C17.6812 47.3298 17.5104 47.6243 17.2857 47.8652C17.0611 48.1029 16.791 48.2852 16.4752 48.4121C16.1594 48.5358 15.803 48.5977 15.4059 48.5977C15.0348 48.5977 14.6946 48.5358 14.3854 48.4121C14.0761 48.2852 13.8076 48.1029 13.5797 47.8652C13.3551 47.6243 13.1809 47.3298 13.0572 46.9814C12.9335 46.6331 12.8717 46.2344 12.8717 45.7852C12.8717 45.1895 12.9742 44.6849 13.1793 44.2715C13.3876 43.8548 13.6839 43.5374 14.068 43.3193C14.4521 43.1012 14.9094 42.9922 15.44 42.9922C15.9381 42.9922 16.3775 43.1012 16.7584 43.3193C17.1393 43.5374 17.4371 43.8548 17.652 44.2715C17.8668 44.6882 17.9742 45.1927 17.9742 45.7852ZM14.0533 45.7852C14.0533 46.179 14.1005 46.516 14.1949 46.7959C14.2926 47.0758 14.4423 47.2907 14.6441 47.4404C14.846 47.5869 15.1064 47.6602 15.4254 47.6602C15.7444 47.6602 16.0048 47.5869 16.2066 47.4404C16.4085 47.2907 16.5566 47.0758 16.651 46.7959C16.7454 46.516 16.7926 46.179 16.7926 45.7852C16.7926 45.3913 16.7454 45.0576 16.651 44.7842C16.5566 44.5075 16.4085 44.2975 16.2066 44.1543C16.0048 44.0078 15.7428 43.9346 15.4205 43.9346C14.9452 43.9346 14.5986 44.0941 14.3805 44.4131C14.1624 44.7321 14.0533 45.1895 14.0533 45.7852ZM22.1928 43.9688H20.8793V48.5H19.7318V43.9688H18.848V43.417L19.7318 43.0801V42.7041C19.7318 42.2451 19.8035 41.8805 19.9467 41.6104C20.0932 41.3402 20.3015 41.1465 20.5717 41.0293C20.8451 40.9089 21.1706 40.8486 21.5482 40.8486C21.7956 40.8486 22.0219 40.8698 22.227 40.9121C22.432 40.9512 22.6046 40.9967 22.7445 41.0488L22.4467 41.918C22.336 41.8822 22.2123 41.8496 22.0756 41.8203C21.9389 41.7878 21.7924 41.7715 21.6361 41.7715C21.3757 41.7715 21.1837 41.8529 21.06 42.0156C20.9395 42.1784 20.8793 42.416 20.8793 42.7285V43.0947H22.1928V43.9688ZM24.2582 43.0947V48.5H23.1107V43.0947H24.2582ZM23.6918 41.0244C23.8676 41.0244 24.0189 41.0716 24.1459 41.166C24.2761 41.2604 24.3412 41.4232 24.3412 41.6543C24.3412 41.8822 24.2761 42.0449 24.1459 42.1426C24.0189 42.237 23.8676 42.2842 23.6918 42.2842C23.5095 42.2842 23.3549 42.237 23.2279 42.1426C23.1042 42.0449 23.0424 41.8822 23.0424 41.6543C23.0424 41.4232 23.1042 41.2604 23.2279 41.166C23.3549 41.0716 23.5095 41.0244 23.6918 41.0244ZM27.2512 48.5H26.0988V40.9023H27.2512V48.5Z" fill="white"/>
</svg>
