<svg width="31" height="65" viewBox="0 0 31 65" fill="none" xmlns="http://www.w3.org/2000/svg">
<path fill-rule="evenodd" clip-rule="evenodd" d="M17.6748 29.503L17.6808 27.5C17.6808 27.2341 17.7864 26.9791 17.9744 26.7911C18.1624 26.6031 18.4174 26.4975 18.6833 26.4975C18.9491 26.4975 19.2041 26.6031 19.3921 26.7911C19.5801 26.9791 19.6858 27.2341 19.6858 27.5V29.477C19.6858 29.958 19.6858 30.199 19.8398 30.347C19.9948 30.494 20.2298 30.484 20.7028 30.464C22.5658 30.385 23.7108 30.134 24.5168 29.328C25.3268 28.522 25.5778 27.377 25.6568 25.511C25.6718 25.141 25.6798 24.955 25.6108 24.832C25.5408 24.709 25.2658 24.555 24.7138 24.246C24.4028 24.0727 24.1438 23.8194 23.9635 23.5125C23.7832 23.2055 23.6881 22.856 23.6881 22.5C23.6881 22.144 23.7832 21.7945 23.9635 21.4875C24.1438 21.1806 24.4028 20.9273 24.7138 20.754C25.2658 20.446 25.5418 20.291 25.6108 20.168C25.6798 20.045 25.6718 19.86 25.6558 19.489C25.5778 17.623 25.3258 16.479 24.5168 15.672C23.6398 14.796 22.3618 14.575 20.1948 14.519C20.1284 14.5173 20.0624 14.5288 20.0006 14.553C19.9388 14.5772 19.8824 14.6136 19.8349 14.6599C19.7874 14.7062 19.7496 14.7616 19.7238 14.8228C19.698 14.8839 19.6847 14.9496 19.6848 15.016V17.5C19.6848 17.7659 19.5791 18.0209 19.3911 18.2089C19.2031 18.3969 18.9481 18.5025 18.6823 18.5025C18.4164 18.5025 18.1614 18.3969 17.9734 18.2089C17.7854 18.0209 17.6798 17.7659 17.6798 17.5L17.6728 14.999C17.6725 14.8666 17.6197 14.7396 17.526 14.6461C17.4322 14.5525 17.3052 14.5 17.1728 14.5H13.6608C9.88076 14.5 7.99076 14.5 6.81576 15.672C6.00576 16.478 5.75476 17.623 5.67576 19.489C5.66076 19.859 5.65276 20.045 5.72176 20.168C5.79176 20.291 6.06676 20.446 6.61876 20.754C6.92969 20.9273 7.1887 21.1806 7.369 21.4875C7.5493 21.7945 7.64437 22.144 7.64437 22.5C7.64437 22.856 7.5493 23.2055 7.369 23.5125C7.1887 23.8194 6.92969 24.0727 6.61876 24.246C6.06676 24.555 5.79076 24.709 5.72176 24.832C5.65276 24.955 5.66076 25.14 5.67676 25.51C5.75476 27.377 6.00676 28.522 6.81576 29.328C7.99076 30.5 9.88076 30.5 13.6618 30.5H16.6718C17.1438 30.5 17.3788 30.5 17.5258 30.354C17.6728 30.208 17.6738 29.974 17.6748 29.503ZM19.6848 23.5V21.5C19.6848 21.2341 19.5791 20.9791 19.3911 20.7911C19.2031 20.6031 18.9481 20.4975 18.6823 20.4975C18.4164 20.4975 18.1614 20.6031 17.9734 20.7911C17.7854 20.9791 17.6798 21.2341 17.6798 21.5V23.5C17.6798 23.766 17.7854 24.0211 17.9735 24.2092C18.1616 24.3973 18.4167 24.503 18.6828 24.503C18.9488 24.503 19.2039 24.3973 19.392 24.2092C19.5801 24.0211 19.6848 23.766 19.6848 23.5Z" fill="white"/>
<path d="M6.57983 48.5H5.40308V42.3574H3.31323V41.3613H8.66479V42.3574H6.57983V48.5ZM10.9888 43.0947V48.5H9.84136V43.0947H10.9888ZM10.4224 41.0244C10.5982 41.0244 10.7496 41.0716 10.8765 41.166C11.0067 41.2604 11.0718 41.4232 11.0718 41.6543C11.0718 41.8822 11.0067 42.0449 10.8765 42.1426C10.7496 42.237 10.5982 42.2842 10.4224 42.2842C10.2401 42.2842 10.0855 42.237 9.95854 42.1426C9.83485 42.0449 9.773 41.8822 9.773 41.6543C9.773 41.4232 9.83485 41.2604 9.95854 41.166C10.0855 41.0716 10.2401 41.0244 10.4224 41.0244ZM13.9818 40.9023V44.5742C13.9818 44.7402 13.9753 44.9225 13.9623 45.1211C13.9492 45.3164 13.9362 45.5003 13.9232 45.6729H13.9476C14.0322 45.5589 14.1332 45.4255 14.2503 45.2725C14.3708 45.1195 14.4847 44.986 14.5921 44.8721L16.2425 43.0947H17.5609L15.3978 45.4189L17.7025 48.5H16.3548L14.6263 46.127L13.9818 46.6787V48.5H12.8343V40.9023H13.9818ZM20.9201 42.9922C21.4018 42.9922 21.8153 43.0915 22.1603 43.29C22.5054 43.4886 22.7707 43.7702 22.9562 44.1348C23.1417 44.4993 23.2345 44.9355 23.2345 45.4434V46.0586H19.6261C19.6391 46.5827 19.7791 46.9863 20.046 47.2695C20.3162 47.5527 20.6938 47.6943 21.1789 47.6943C21.5239 47.6943 21.8332 47.6618 22.1066 47.5967C22.3833 47.5283 22.6681 47.429 22.9611 47.2988V48.2314C22.6909 48.3584 22.4158 48.4512 22.1359 48.5098C21.8559 48.5684 21.5207 48.5977 21.13 48.5977C20.5994 48.5977 20.1323 48.4951 19.7287 48.29C19.3283 48.0817 19.0141 47.7725 18.7863 47.3623C18.5617 46.9521 18.4494 46.4427 18.4494 45.834C18.4494 45.2285 18.5519 44.7142 18.757 44.291C18.9621 43.8678 19.2501 43.5456 19.6212 43.3242C19.9923 43.1029 20.4253 42.9922 20.9201 42.9922ZM20.9201 43.8564C20.5587 43.8564 20.2658 43.9736 20.0412 44.208C19.8198 44.4424 19.6896 44.7858 19.6505 45.2383H22.1115C22.1082 44.9681 22.0626 44.7288 21.9748 44.5205C21.8901 44.3122 21.7599 44.1494 21.5841 44.0322C21.4116 43.915 21.1903 43.8564 20.9201 43.8564ZM26.7402 47.6699C26.8899 47.6699 27.038 47.6569 27.1845 47.6309C27.331 47.6016 27.4645 47.5674 27.5849 47.5283V48.3975C27.458 48.4528 27.2936 48.5 27.0917 48.5391C26.8899 48.5781 26.68 48.5977 26.4619 48.5977C26.1559 48.5977 25.8808 48.5472 25.6367 48.4463C25.3925 48.3421 25.1988 48.1647 25.0556 47.9141C24.9124 47.6634 24.8408 47.3167 24.8408 46.874V43.9688H24.1035V43.4561L24.8945 43.0508L25.2705 41.8936H25.9931V43.0947H27.541V43.9688H25.9931V46.8594C25.9931 47.1328 26.0615 47.3363 26.1982 47.4697C26.3349 47.6032 26.5156 47.6699 26.7402 47.6699Z" fill="white"/>
</svg>
